<svg xmlns="http://www.w3.org/2000/svg" xmlns:xlink="http://www.w3.org/1999/xlink" width="300" zoomAndPan="magnify" viewBox="0 0 224.87999 225" height="300" preserveAspectRatio="xMidYMid meet" version="1.0"><defs><clipPath id="34de69723a"><path d="M 120 66 L 159.914062 66 L 159.914062 135 L 120 135 Z M 120 66 " clip-rule="nonzero"/></clipPath><clipPath id="a906128564"><path d="M 65 42 L 118 42 L 118 159.386719 L 65 159.386719 Z M 65 42 " clip-rule="nonzero"/></clipPath></defs><g clip-path="url(#34de69723a)"><path fill="#ffffff" d="M 124.300781 134.734375 C 123.203125 134.734375 122.101562 134.3125 121.261719 133.476562 C 119.585938 131.796875 119.585938 129.078125 121.261719 127.402344 L 147.851562 100.816406 L 121.261719 74.226562 C 119.585938 72.550781 119.585938 69.832031 121.261719 68.152344 C 122.941406 66.476562 125.660156 66.476562 127.339844 68.152344 L 160 100.816406 L 127.339844 133.476562 C 126.5 134.3125 125.398438 134.734375 124.300781 134.734375 " fill-opacity="1" fill-rule="nonzero"/></g><g clip-path="url(#a906128564)"><path fill="#ffffff" d="M 69.808594 159.359375 C 69.277344 159.359375 68.734375 159.261719 68.207031 159.046875 C 66.007812 158.164062 64.941406 155.664062 65.824219 153.460938 L 109.4375 44.964844 C 110.324219 42.761719 112.824219 41.695312 115.023438 42.578125 C 117.226562 43.464844 118.292969 45.964844 117.40625 48.167969 L 73.796875 156.664062 C 73.121094 158.34375 71.511719 159.359375 69.808594 159.359375 " fill-opacity="1" fill-rule="nonzero"/></g></svg>